<?xml version="1.0" encoding="UTF-8" standalone="no"?>
<svg
   xmlns:dc="http://purl.org/dc/elements/1.1/"
   xmlns:cc="http://creativecommons.org/ns#"
   xmlns:rdf="http://www.w3.org/1999/02/22-rdf-syntax-ns#"
   xmlns:svg="http://www.w3.org/2000/svg"
   xmlns="http://www.w3.org/2000/svg"
   xmlns:sodipodi="http://sodipodi.sourceforge.net/DTD/sodipodi-0.dtd"
   xmlns:inkscape="http://www.inkscape.org/namespaces/inkscape"
   width="384pt"
   height="384pt"
   version="1.1"
   viewBox="0 0 384 384"
   id="svg28"
   sodipodi:docname="update-manager.svg"
   inkscape:version="0.92.2 2405546, 2018-03-11">
  <metadata
     id="metadata32">
    <rdf:RDF>
      <cc:Work
         rdf:about="">
        <dc:format>image/svg+xml</dc:format>
        <dc:type
           rdf:resource="http://purl.org/dc/dcmitype/StillImage" />
        <dc:title></dc:title>
      </cc:Work>
    </rdf:RDF>
  </metadata>
  <sodipodi:namedview
     pagecolor="#ffffff"
     bordercolor="#666666"
     borderopacity="1"
     objecttolerance="10"
     gridtolerance="10"
     guidetolerance="10"
     inkscape:pageopacity="0"
     inkscape:pageshadow="2"
     inkscape:window-width="1366"
     inkscape:window-height="690"
     id="namedview30"
     showgrid="false"
     inkscape:zoom="0.24092549"
     inkscape:cx="-702.09615"
     inkscape:cy="156.11245"
     inkscape:window-x="0"
     inkscape:window-y="0"
     inkscape:window-maximized="1"
     inkscape:current-layer="g854" />
  <defs
     id="defs16">
    <filter
       id="alpha"
       width="100%"
       height="100%"
       x="0%"
       y="0%"
       filterUnits="objectBoundingBox">
      <feColorMatrix
         in="SourceGraphic"
         type="matrix"
         values="0 0 0 0 1 0 0 0 0 1 0 0 0 0 1 0 0 0 1 0"
         id="feColorMatrix2" />
    </filter>
    <mask
       id="mask0">
      <g
         filter="url(#alpha)"
         id="g7">
        <rect
           width="384"
           height="384"
           x="0"
           y="0"
           style="fill:rgb(0%,0%,0%);fill-opacity:0.301961"
           id="rect5" />
      </g>
    </mask>
    <clipPath
       id="clip1">
      <rect
         width="384"
         height="384"
         x="0"
         y="0"
         id="rect10" />
    </clipPath>
    <g
       id="surface5"
       clip-path="url(#clip1)">
      <path
         style="fill:rgb(0%,0%,0%)"
         d="M 192 105.75 C 140.0625 105.75 98.25 147.5625 98.25 199.5 C 98.25 251.4375 140.0625 293.25 192 293.25 C 243.9375 293.25 285.75 251.4375 285.75 199.5 C 285.75 147.5625 243.9375 105.75 192 105.75 Z M 192 124.5 C 233.550781 124.5 267 157.949219 267 199.5 C 267 241.050781 233.550781 274.5 192 274.5 C 150.449219 274.5 117 241.050781 117 199.5 C 117 157.949219 150.449219 124.5 192 124.5 Z M 192 155.75 L 148.25 199.5 L 173.25 199.5 L 173.25 243.25 L 210.75 243.25 L 210.75 199.5 L 235.75 199.5 Z M 192 155.75"
         id="path13" />
    </g>
  </defs>
  <g
     id="g26">
    <g
       id="g854"
       transform="matrix(1.0024221,0,0,1.0024221,-11.306308,8.9199558)">
      <g
         id="g4659"
         transform="translate(0.18704962,-2.730775)">
        <path
           id="path18-0"
           d="m 191.6259,28.711488 c 93.19923,0 168.75001,75.550832 168.75001,168.750062 0,93.19921 -75.55078,168.75 -168.75001,168.75 -93.199219,0 -168.75,-75.55079 -168.75,-168.75 0,-93.19923 75.550781,-168.750062 168.75,-168.750062 z m 0,0"
           style="fill:#145c09;fill-opacity:1;stroke-width:0.99999994"
           inkscape:connector-curvature="0" />
        <path
           inkscape:connector-curvature="0"
           style="fill:#26b113;fill-opacity:1"
           d="m 192,23.25 c 93.19922,0 168.75,75.550781 168.75,168.75 0,93.19922 -75.55078,168.75 -168.75,168.75 C 98.800781,360.75 23.25,285.19922 23.25,192 23.25,98.800781 98.800781,23.25 192,23.25 Z m 0,0"
           id="path18" />
        <path
           style="fill:#000000;fill-opacity:0.46268658;stroke-width:2.06052971"
           d="M 192,77.125216 117,185.4812 h 42.85714 v 108.3559 h 64.28572 V 185.4812 H 267 Z"
           id="path24-5"
           inkscape:connector-curvature="0"
           sodipodi:nodetypes="cccccccc" />
        <path
           style="fill:#ffffff;fill-opacity:1;stroke-width:2.06052971"
           d="M 192,74.281746 117,182.63768 h 42.85714 v 108.35593 h 64.28572 V 182.63768 H 267 Z"
           id="path24"
           inkscape:connector-curvature="0"
           sodipodi:nodetypes="cccccccc" />
        <path
           sodipodi:nodetypes="ccccccccccccccccc"
           style="display:inline;fill:#b41515;fill-opacity:1;stroke:none;stroke-width:10.86608601;enable-background:new"
           id="path6790-6"
           d="M 303.26156,7.5181112 C 295.24242,15.431232 287.56257,24.433432 279.4495,32.306402 h -30.51835 v 30.51835 c -7.87413,8.11318 -16.87416,15.79276 -24.78829,23.81207 7.91586,8.0218 16.91313,16.010968 24.78829,24.151548 v 30.17889 h 30.49718 c 8.12089,7.87718 15.80714,16.86749 23.83323,24.78815 8.02844,-7.9224 16.02517,-16.90993 24.17269,-24.78815 H 357.592 v -30.17889 c 7.87544,-8.14014 16.87199,-16.130198 24.78814,-24.151548 -7.91355,-8.01973 -16.91457,-15.69843 -24.78814,-23.81207 v -30.51835 h -30.17889 c -8.14015,-7.87558 -16.13018,-16.87199 -24.15155,-24.7882908 z"
           inkscape:connector-curvature="0"
           class="warning" />
        <path
           class="warning"
           inkscape:connector-curvature="0"
           d="m 303.26157,4.525355 c -8.01915,7.913118 -15.699,16.915324 -23.81207,24.788288 h -30.51835 v 30.518349 c -7.87413,8.113182 -16.87416,15.792766 -24.78829,23.812076 7.91586,8.0218 16.91313,16.01096 24.78829,24.151542 v 30.17889 h 30.49718 c 8.12089,7.87717 15.80714,16.86749 23.83324,24.78815 8.02843,-7.9224 16.02516,-16.90994 24.17268,-24.78815 H 357.592 V 107.79561 C 365.46744,99.655468 374.46399,91.665418 382.38014,83.644068 374.46659,75.624338 365.46557,67.945636 357.592,59.831992 V 29.313643 H 327.41311 C 319.27296,21.438064 311.28293,12.441659 303.26157,4.525355 Z"
           id="path6790"
           style="display:inline;fill:#e41b1b;fill-opacity:1;stroke:none;stroke-width:10.86608601;enable-background:new"
           sodipodi:nodetypes="ccccccccccccccccc" />
      </g>
    </g>
  </g>
</svg>
